<?xml version="1.0" standalone="no"?>
<!DOCTYPE svg PUBLIC "-//W3C//DTD SVG 20010904//EN"
 "http://www.w3.org/TR/2001/REC-SVG-20010904/DTD/svg10.dtd">
<svg version="1.0" xmlns="http://www.w3.org/2000/svg"
 width="213.000000pt" height="213.000000pt" viewBox="0 0 213.000000 213.000000"
 preserveAspectRatio="xMidYMid meet">
<metadata>
Created by potrace 1.11, written by Peter Selinger 2001-2013
</metadata>
<g transform="translate(0.000000,213.000000) scale(0.100000,-0.100000)"
fill="#000000" stroke="none">
<path d="M330 1919 c-64 -26 -93 -79 -95 -178 -2 -65 -5 -76 -26 -92 -13 -10
-29 -19 -35 -19 -17 0 -92 -78 -119 -124 -54 -92 -69 -253 -33 -357 30 -88
116 -184 188 -210 24 -9 25 -13 23 -82 -1 -39 -2 -77 -2 -84 -1 -8 -19 -12
-53 -12 -29 1 -77 1 -105 0 l-53 -1 0 -155 c0 -154 0 -155 23 -156 12 0 59 -1
105 -1 55 0 82 -4 83 -11 0 -7 2 -37 3 -67 3 -66 24 -110 68 -142 l33 -23 753
-3 c845 -3 799 -6 850 70 l25 39 1 527 1 527 80 0 80 0 3 158 3 157 -84 0 -84
0 0 63 c0 82 -23 130 -78 162 l-42 25 -744 -1 c-466 0 -753 -4 -769 -10z"/>
</g>
</svg>
