<?xml version="1.0" standalone="no"?>
<!DOCTYPE svg PUBLIC "-//W3C//DTD SVG 20010904//EN"
 "http://www.w3.org/TR/2001/REC-SVG-20010904/DTD/svg10.dtd">
<svg version="1.0" xmlns="http://www.w3.org/2000/svg"
 width="450.000000pt" height="450.000000pt" viewBox="0 0 450.000000 450.000000"
 preserveAspectRatio="xMidYMid meet">
<metadata>
Created by potrace 1.11, written by Peter Selinger 2001-2013
</metadata>
<g transform="translate(0.000000,450.000000) scale(0.100000,-0.100000)"
fill="#000000" stroke="none">
<path d="M2120 4239 c-362 -39 -702 -173 -996 -390 -89 -65 -287 -247 -304
-278 -7 -14 14 -16 198 -16 114 0 406 -1 650 -2 l442 -3 0 -335 0 -335 -699 0
-699 0 -17 -37 c-29 -60 -32 -160 -7 -216 l21 -47 399 0 c362 0 406 -2 475
-19 136 -35 273 -116 360 -211 155 -172 225 -402 206 -675 -9 -122 -31 -201
-89 -320 -103 -215 -293 -358 -530 -401 -53 -9 -170 -13 -392 -14 -175 0 -318
-4 -318 -9 0 -17 212 -213 303 -280 160 -118 279 -185 460 -257 893 -359 1926
-18 2437 804 295 477 376 1073 218 1610 l-21 72 -201 0 -201 0 2 -927 c2 -511
0 -947 -3 -970 l-5 -43 -340 0 -339 0 0 970 0 970 -362 2 -363 3 -3 333 -2
332 507 3 c280 1 601 2 716 2 114 0 207 3 207 6 0 13 -221 219 -298 278 -267
202 -570 332 -902 386 -117 19 -396 27 -510 14z"/>
<path d="M643 3409 c-271 -45 -474 -283 -502 -589 -35 -376 144 -671 455 -750
70 -18 112 -20 472 -20 441 0 438 0 487 -70 89 -129 83 -342 -14 -451 l-39
-44 -661 -3 -661 -2 0 -201 0 -200 678 3 677 3 66 26 c206 80 332 223 390 444
30 112 30 298 0 410 -60 227 -206 389 -411 457 -61 21 -89 22 -492 27 -494 7
-459 -1 -518 115 -32 64 -34 77 -35 160 0 132 42 230 119 277 30 18 59 19 674
19 l642 0 0 200 0 200 -637 -1 c-351 -1 -661 -5 -690 -10z"/>
<path d="M2540 3220 l0 -200 365 0 365 0 0 -970 0 -970 205 0 205 0 0 970 0
970 345 0 345 0 0 200 0 200 -915 0 -915 0 0 -200z"/>
<path d="M336 2003 c11 -79 54 -280 72 -332 l18 -53 507 -5 507 -5 21 47 c17
38 20 62 17 119 -2 39 -10 85 -18 101 l-15 30 -415 6 c-337 5 -426 10 -472 23
-62 17 -169 65 -205 92 -22 16 -22 15 -17 -23z"/>
</g>
</svg>
